<?xml version="1.0" encoding="UTF-8"?>
<svg viewBox="0 0 1062.99 708.661" xmlns="http://www.w3.org/2000/svg">
 <path d="m0 0h1063v708.66h-1063z" fill="#0c590b" fill-rule="evenodd"/>
 <path d="m0-2.4e-5h266.47v708.66h-266.47z" fill="#fff" fill-rule="evenodd"/>
 <path transform="matrix(1.0442 0 0 1.0442 -33.956 -12.68)" d="m837.2 299.23-52.544-11.054-27.632 46.039-5.725-53.388-52.325-12.054 49.007-21.942-4.706-53.488 36.012 39.827 49.416-21.004-26.749 46.557 35.246 40.507z" fill="#fff" fill-rule="evenodd"/>
 <path d="m860.96 441.82c-48.714 107.32-176.54 154.21-284.18 104.35s-154.52-177.69-104.66-285.33c25.434-54.9 67.057-92.628 125.81-113.22-6.758 5.715-13.445 11.643-20.773 19.205-75.899 78.328-73.927 203.5 4.4 279.4s203.5 73.928 279.4-4.4z" fill="#fff" fill-rule="evenodd"/>
</svg>
